<svg width="20" height="20" viewBox="0 0 20 20" fill="none" xmlns="http://www.w3.org/2000/svg">
    <path opacity="0.4" d="M10 20C15.5228 20 20 15.5228 20 10C20 4.47715 15.5228 0 10 0C4.47715 0 0 4.47715 0 10C0 15.5228 4.47715 20 10 20Z" fill="#BDBDBD"/>
    <path d="M11.06 9.99986L13.36 7.69986C13.65 7.40986 13.65 6.92986 13.36 6.63986C13.07 6.34986 12.59 6.34986 12.3 6.63986L9.99998 8.93986L7.69998 6.63986C7.40998 6.34986 6.92999 6.34986 6.63999 6.63986C6.34999 6.92986 6.34999 7.40986 6.63999 7.69986L8.93998 9.99986L6.63999 12.2999C6.34999 12.5899 6.34999 13.0699 6.63999 13.3599C6.78999 13.5099 6.97999 13.5799 7.16999 13.5799C7.35999 13.5799 7.54998 13.5099 7.69998 13.3599L9.99998 11.0599L12.3 13.3599C12.45 13.5099 12.64 13.5799 12.83 13.5799C13.02 13.5799 13.21 13.5099 13.36 13.3599C13.65 13.0699 13.65 12.5899 13.36 12.2999L11.06 9.99986Z" fill="#BDBDBD"/>
</svg>
