<svg width="30" height="30" viewBox="0 0 30 30" fill="none" xmlns="http://www.w3.org/2000/svg"> <path opacity="0.4" d="M15 30C23.2843 30 30 23.2843 30 15C30 6.71573 23.2843 0 15 0C6.71573 0 0 6.71573 0 15C0 23.2843 6.71573 30 15 30Z" fill="#EB5757"/> <path d="M16.0498 18.3877H14.582L14.4678 9.20312H16.1729L16.0498 18.3877ZM14.4062 21.1826C14.4062 20.9189 14.4854 20.6992 14.6436 20.5234C14.8076 20.3418 15.0479 20.251 15.3643 20.251C15.6807 20.251 15.9209 20.3418 16.085 20.5234C16.249 20.6992 16.3311 20.9189 16.3311 21.1826C16.3311 21.4463 16.249 21.666 16.085 21.8418C15.9209 22.0117 15.6807 22.0967 15.3643 22.0967C15.0479 22.0967 14.8076 22.0117 14.6436 21.8418C14.4854 21.666 14.4062 21.4463 14.4062 21.1826Z" fill="white"/> </svg>