<svg width="30" height="30" viewBox="0 0 30 30" fill="none" xmlns="http://www.w3.org/2000/svg">
    <path opacity="0.4" d="M15 30C23.2843 30 30 23.2843 30 15C30 6.71573 23.2843 0 15 0C6.71573 0 0 6.71573 0 15C0 23.2843 6.71573 30 15 30Z" fill="#6FCF97"/>
    <path d="M12.87 20.37C12.57 20.37 12.285 20.25 12.075 20.04L7.83003 15.795C7.39503 15.36 7.39503 14.64 7.83003 14.205C8.26503 13.77 8.98503 13.77 9.42003 14.205L12.87 17.655L20.58 9.94502C21.015 9.51002 21.735 9.51002 22.17 9.94502C22.605 10.38 22.605 11.1 22.17 11.535L13.665 20.04C13.455 20.25 13.17 20.37 12.87 20.37Z" fill="#6FCF97"/>
</svg>
